<svg height="20" viewBox="0 0 20 20" width="20" xmlns="http://www.w3.org/2000/svg"><g fill="none" fill-rule="evenodd" transform="translate(-2 -2)"><path d="m0 0h24v24h-24z"/><path d="m20 12h-4v-2h4zm-1 8h-3v-6h3zm-3.707-15.706c.189-.189.44-.293.707-.293s.518.104.707.292c.389.391.39 1.026 0 1.414-.591.592-1.65.936-2.533 1.121.184-.884.529-1.943 1.119-2.534zm-1.293 7.706h-4v-2h4zm0 8h-4v-6h4zm-6.707-14.293c-.189-.188-.293-.44-.293-.707 0-.266.104-.517.293-.707.189-.188.439-.292.707-.292.267 0 .518.104.707.293.59.59.934 1.648 1.118 2.53-.88-.184-1.945-.529-2.532-1.117zm.707 6.293h-4v-2h4zm0 8h-3v-6h3zm12-12h-3.115c.451-.234.879-.521 1.236-.878 1.169-1.169 1.169-3.072 0-4.242-1.134-1.133-3.108-1.133-4.242 0-1.636 1.636-1.859 4.717-1.879 5.063-.02-.346-.243-3.427-1.879-5.063-1.134-1.133-3.11-1.132-4.242 0-.567.566-.879 1.319-.879 2.12 0 .802.312 1.555.878 2.122.358.357.785.644 1.237.878h-3.115c-1.103 0-2 .898-2 2v3c0 .553.448 1 1 1v6c0 1.103.897 2 2 2h14c1.103 0 2-.897 2-2v-6c.552 0 1-.447 1-1v-3c0-1.102-.897-2-2-2z" fill="#fff"/></g></svg>