<svg height="24" viewBox="0 0 24 24" width="24" xmlns="http://www.w3.org/2000/svg"><g fill="none" fill-rule="evenodd"><path d="m0 0h24v24h-24z"/><path d="m0 12.3044338c0 5.4354025 3.43804291 10.047488 8.2065134 11.6744831.60038675.1133005.819178-.2666338.819178-.5929392 0-.2923153-.0103134-1.06578-.01620676-2.0922825-3.33785568.7432512-4.04211302-1.6496553-4.04211302-1.6496553-.54587311-1.4215435-1.33263759-1.7999672-1.33263759-1.7999672-1.0895362-.7636453.08250714-.7477832.08250714-.7477832 1.20445686.0868637 1.8379938 1.2682102 1.8379938 1.2682102 1.07111943 1.8800329 2.80892599 1.3369458 3.49255655 1.0219705.10902729-.7953695.41916572-1.3369459.76171767-1.6451232-2.6645385-.3104434-5.46609779-1.3656487-5.46609779-6.08046 0-1.3437439.467786-2.44200333 1.23539703-3.30233176-.12302403-.3111987-.53482304-1.56203617.11786734-3.25550091 0 0 1.00776574-.33159279 3.29954879 1.26065685.95767212-.27267653 1.98385464-.40939246 3.00414374-.41392448 1.0195525.00453202 2.045735.14124795 3.0048805.41392448 2.2903097-1.59224964 3.2966021-1.26065685 3.2966021-1.26065685.6541637 1.69346474.2423647 2.94430221.1193407 3.25550091.7690843.86032843 1.233187 1.95858786 1.233187 3.30233176 0 4.7261414-2.8052427 5.7662399-5.4786212 6.0713959.4309524.3799343.8140213 1.130739.8140213 2.2780953 0 1.6451232-.0139968 2.9722497-.0139968 3.3755995 0 .3293267.2158446.7115271.8250714.5914285 4.7640505-1.6300164 8.1991467-6.2383253 8.1991467-11.6729724 0-6.7957637-5.3732773-12.3044338-12.001105-12.3044338-6.62561774 0-11.998895 5.5086701-11.998895 12.3044338z" fill="#fff"/></g></svg>