<svg height="20" viewBox="0 0 20 20" width="20" xmlns="http://www.w3.org/2000/svg"><g fill="none" fill-rule="evenodd" transform="translate(-2 -2)"><path d="m0 0h24v24h-24z"/><path d="m2.50446849 8.41311307h3.89816556v13.58560633h-3.89816556zm1.84971778-1.69932129h-.02822202c-1.41110066 0-2.32596425-1.03854527-2.32596425-2.35369446 0-1.34204123.94190969-2.36009732 2.38123236-2.36009732 1.43814676 0 2.3224365 1.01549494 2.35065851 2.3562556 0 1.31514919-.91251175 2.35753618-2.3777046 2.35753618zm17.64581373 15.28620822h-4.4202728v-7.0316302c0-1.8401844-.6914393-3.0951466-2.2119003-3.0951466-1.1629821 0-1.8097366.8464592-2.1107714 1.6647458-.112888.2919708-.0952493.7004738-.0952493 1.1102574v7.3517736h-4.3791157s.05644402-12.45485978 0-13.58688693h4.3791157v2.13215523c.2587018-.93225767 1.6580433-2.26277374 3.8911101-2.26277374 2.7704609 0 4.9470837 1.95543604 4.9470837 6.16212064z" fill="#fff"/></g></svg>