<svg enable-background="new 0 0 198 33" viewBox="0 0 198 33" xmlns="http://www.w3.org/2000/svg"><g enable-background="new" fill="#fff"><path d="m11.6 23.2c-2.1 0-4-.5-5.7-1.4-1.7-1-3-2.3-4-4s-1.4-3.6-1.4-5.7c0-2.2.5-4.1 1.4-5.8 1-1.7 2.3-3 4-4s3.6-1.4 5.7-1.4 4 .5 5.7 1.4 3 2.3 3.9 4c1 1.7 1.5 3.6 1.5 5.8 0 2.1-.5 4-1.5 5.7s-2.3 3-4 4-3.5 1.4-5.6 1.4zm0-2.8c1.5 0 2.9-.4 4.2-1.1 1.2-.7 2.2-1.7 2.9-3s1-2.7 1-4.3-.3-3-1-4.3-1.7-2.3-2.9-3-2.6-1.1-4.2-1.1c-1.5 0-2.9.4-4.2 1.1s-2.2 1.7-2.9 3-1.1 2.8-1.1 4.4.4 3 1.1 4.3 1.7 2.2 2.9 3c1.2.6 2.6 1 4.2 1z"/><path d="m34.7 32.4c-.5 0-.9-.1-1.1-.4-.3-.3-.4-.7-.4-1.1v-19c0-2.1.5-4 1.5-5.6 1-1.7 2.3-3 4-3.9 1.7-1 3.5-1.4 5.6-1.4s4 .5 5.7 1.5 3 2.3 4 4 1.5 3.6 1.5 5.7-.5 4-1.4 5.7-2.2 3-3.9 4c-1.6 1-3.5 1.5-5.5 1.5-1.8 0-3.4-.4-4.9-1.1-1.5-.8-2.6-1.8-3.5-3v11.8c0 .5-.1.9-.4 1.1-.4 0-.8.2-1.2.2zm9.5-12c1.5 0 2.9-.4 4.2-1.1 1.2-.7 2.2-1.7 2.9-3s1.1-2.7 1.1-4.3-.4-3-1.1-4.3-1.7-2.2-2.9-3-2.6-1.1-4.2-1.1c-1.5 0-2.9.4-4.1 1.1s-2.2 1.7-2.9 3-1 2.7-1 4.3.3 3 1 4.3 1.7 2.3 2.9 3 2.6 1.1 4.1 1.1z"/><path d="m75.8 23.2c-2.2 0-4.1-.5-5.7-1.4s-3-2.3-3.9-3.9c-.9-1.7-1.4-3.6-1.4-5.8s.4-4.1 1.3-5.8 2.1-3 3.7-3.9c1.6-1 3.4-1.4 5.4-1.4s3.8.5 5.3 1.4c1.5.8 2.6 2.1 3.5 3.7.8 1.6 1.2 3.5 1.2 5.6 0 .4-.1.8-.4 1-.3.3-.6.4-1 .4h-17v-2.6h17.3l-1.7 1.2c0-1.5-.3-2.9-.8-4.2-.6-1.2-1.4-2.2-2.5-2.9s-2.4-1-3.9-1-2.9.4-4 1.1-2 1.7-2.7 3-.9 2.7-.9 4.3.4 3.1 1.1 4.3c.7 1.3 1.7 2.2 2.9 3 1.2.7 2.6 1.1 4.2 1.1 1 0 1.9-.2 2.9-.5s1.8-.8 2.3-1.3c.3-.2.6-.4 1-.4s.7.1 1 .3c.3.3.5.7.5 1 0 .4-.1.7-.5 1-.9.7-2 1.4-3.4 1.9-1.3.6-2.6.8-3.8.8z"/><path d="m96.4 23c-.5 0-.9-.1-1.1-.4s-.4-.6-.4-1.1v-18.8c0-.5.1-.9.4-1.1s.7-.4 1.1-.4c.5 0 .8.1 1.1.4s.4.7.4 1.1v18.8c0 .5-.1.8-.4 1.1s-.6.4-1.1.4zm17.2 0c-.5 0-.8-.1-1.1-.4s-.4-.7-.4-1.1v-10.4c0-1.7-.3-3-.9-4.1s-1.5-1.9-2.6-2.4-2.3-.8-3.7-.8c-1.3 0-2.5.3-3.5.8-1.1.5-1.9 1.2-2.5 2.1s-.9 1.9-.9 3h-2.2c.1-1.7.5-3.2 1.4-4.5s2-2.4 3.4-3.1c1.4-.8 3-1.1 4.7-1.1 1.9 0 3.6.4 5.1 1.2s2.7 1.9 3.5 3.5c.9 1.5 1.3 3.4 1.3 5.6v10.4c0 .4-.1.8-.4 1.1-.4.1-.8.2-1.2.2z"/><path d="m136.3 23.2c-2.2 0-4.1-.5-5.7-1.4s-3-2.3-3.9-3.9-1.4-3.6-1.4-5.8.4-4.1 1.3-5.8 2.1-3 3.7-3.9c1.6-1 3.4-1.4 5.4-1.4s3.8.5 5.3 1.4 2.7 2.2 3.5 3.8 1.2 3.5 1.2 5.6c0 .4-.1.8-.4 1-.3.3-.6.4-1 .4h-17v-2.6h17.3l-1.7 1.2c0-1.5-.3-2.9-.8-4.2-.6-1.2-1.4-2.2-2.5-2.9s-2.4-1-3.9-1-2.9.4-4 1.1-2 1.7-2.7 3c-.6 1.3-.9 2.7-.9 4.3s.4 3.1 1.1 4.3c.7 1.3 1.7 2.2 2.9 3 1.2.7 2.6 1.1 4.2 1.1 1 0 1.9-.2 2.9-.5s1.8-.8 2.3-1.3c.3-.2.6-.4 1-.4s.7.1 1 .3c.3.3.5.7.5 1 0 .4-.1.7-.5 1-.9.7-2 1.4-3.4 1.9-1.3.5-2.6.7-3.8.7z"/><path d="m163 23.2c-1.6 0-3.1-.3-4.7-.8s-2.8-1.3-3.8-2.4c-.3-.3-.4-.7-.4-1.1s.3-.7.6-1c.4-.3.8-.4 1.2-.3s.7.2 1 .5c.6.7 1.5 1.3 2.5 1.7 1.1.4 2.2.6 3.5.6 2 0 3.4-.3 4.3-1s1.3-1.5 1.4-2.5c0-1-.5-1.8-1.4-2.4s-2.4-1.1-4.5-1.5c-2.7-.4-4.7-1.2-5.9-2.2s-1.8-2.3-1.8-3.8c0-1.4.4-2.5 1.1-3.4s1.7-1.6 2.9-2c1.2-.5 2.5-.7 4-.7 1.8 0 3.3.3 4.6.9s2.3 1.4 3.1 2.5c.3.3.4.7.3 1.1s-.3.7-.6.9-.7.2-1.1.2c-.4-.1-.8-.3-1.1-.6-.7-.8-1.4-1.3-2.3-1.7s-1.9-.5-3-.5c-1.5 0-2.6.3-3.5.9s-1.4 1.3-1.4 2.2c0 .6.2 1.1.5 1.6s.9.9 1.7 1.2 2 .6 3.4.9c2 .3 3.6.8 4.7 1.4 1.2.6 2 1.4 2.5 2.2s.7 1.8.7 2.7c0 1.3-.4 2.4-1.1 3.3s-1.7 1.7-3 2.2c-1.2.6-2.7.9-4.4.9z"/><path d="m189 23.2c-1.6 0-3.1-.3-4.7-.8-1.5-.5-2.8-1.3-3.8-2.4-.3-.3-.4-.7-.4-1.1.1-.4.3-.7.6-1 .4-.3.8-.4 1.2-.3s.7.2 1 .5c.6.7 1.5 1.3 2.5 1.7 1.1.4 2.2.6 3.5.6 2 0 3.4-.3 4.3-1s1.3-1.5 1.4-2.5c0-1-.5-1.8-1.4-2.4s-2.4-1.1-4.5-1.5c-2.7-.4-4.7-1.2-5.9-2.2s-1.8-2.3-1.8-3.8c0-1.4.4-2.5 1.1-3.4s1.7-1.6 2.9-2c1.2-.5 2.5-.7 4-.7 1.8 0 3.3.3 4.6.9s2.3 1.4 3.1 2.5c.3.3.4.7.3 1.1s-.3.7-.6.9-.7.2-1.1.2c-.4-.1-.8-.3-1.1-.6-.7-.8-1.4-1.3-2.3-1.7s-1.9-.5-3-.5c-1.5 0-2.6.3-3.5.9s-1.3 1.4-1.3 2.3c0 .6.2 1.1.5 1.6s.9.9 1.7 1.2 2 .6 3.4.9c2 .3 3.6.8 4.7 1.4 1.2.6 2 1.4 2.5 2.2s.7 1.8.7 2.7c0 1.3-.4 2.4-1.1 3.3s-1.7 1.7-3 2.2-2.8.8-4.5.8z"/></g></svg>