<svg height="782" viewBox="0 0 463 782" width="463" xmlns="http://www.w3.org/2000/svg" xmlns:xlink="http://www.w3.org/1999/xlink"><defs><filter id="a" height="186%" width="186%" x="-43%" y="-43%"><feGaussianBlur in="SourceGraphic" stdDeviation="2"/></filter><linearGradient id="b" x1="50%" x2="50%" y1="0%" y2="100%"><stop offset="0" stop-color="#ff10e6"/><stop offset=".265995479" stop-color="#d75746"/><stop offset=".72777552" stop-color="#debaf7"/><stop offset="1" stop-color="#fbf5fe"/></linearGradient><path id="c" d="m91.5811932 861.303138c8.5395308 2.865415 15.7969068 8.657135 20.4950408 16.355985 5.098406 8.957263 7.595819 19.164628 7.210166 29.469219.096474 11.264431-2.369307 22.402848-7.210166 32.569745-4.665291 9.824888-11.711213 18.322906-20.4950408 24.718872-9.3308678 6.720095-20.2910342 10.806731-31.7360876 11.8332-10.8450659 1.448305-21.8760947-.31161-31.7360876-5.063244-8.6960509-4.390548-15.84664-11.33759-20.4950405-19.911635-9.6151528-19.006839-9.6151528-41.467639 0-60.474478 4.837916-8.728537 11.913096-16.004924 20.4950405-21.077887 9.7434142-5.648836 20.5493136-9.213054 31.7360876-10.467831 10.5898932-1.87084 21.4731499-1.168501 31.7360876 2.048054zm130.4642738-37.974332c4.551651 1.500663 8.294279 4.798933 10.361067 9.130907 2.370767 5.196491 3.507575 10.872815 3.321218 16.583547-.001931 6.585487-1.144902 13.120635-3.377991 19.314285-2.348493 6.367575-5.873112 12.23479-10.389453 17.294677-5.051345 5.649576-11.130281 10.283371-17.911871 13.653692-1.589643.796466-3.406378 1.621376-5.450204 2.446287-2.043827.82491-3.63347 1.450705-4.768929 1.848937-9.462161 3.33757-19.000019 6.466541-28.613575 9.386914v39.197474c-7.683275 2.313543-15.404398 4.484859-23.16337 6.513949v-114.947021c17.221133-5.025317 34.480115-10.714355 51.776945-17.067115l4.797315-1.678266c1.781022-.592923 3.590561-1.096086 5.421818-1.507595 5.862919-1.756395 12.10199-1.815562 17.99703-.170672zm-162.2003614 55.866358c-6.9281987.586379-13.6013689 2.89358-19.4163542 6.713065-5.1357443 3.551182-9.1692829 8.480305-11.6384578 14.222596-2.686458 6.475877-4.0010865 13.440382-3.8605617 20.452093-.17141 6.83939 1.1459827 13.634111 3.8605617 19.911634 2.3931375 5.360089 6.4840151 9.779376 11.6384578 12.572775 6.0038517 2.998793 12.7690024 4.118739 19.4163542 3.214307v.05689c7.0166452-.487556 13.7504411-2.963694 19.4163541-7.139743 5.1871489-4.037562 9.2048988-9.389275 11.6384579-15.502629 2.648172-6.805076 3.959058-14.058836 3.8605616-21.36234.22612-6.788735-1.0941395-13.539876-3.8605616-19.740963-2.3926392-5.068312-6.52308-9.106344-11.6384579-11.378077-6.1761815-2.397888-12.8803625-3.095229-19.4163541-2.019608zm275.5192004-115.771932v21.305449c-18.96217 9.443804-37.924341 18.631601-56.772965 27.307384v25.600673c15.555792-7.035444 31.111585-14.345859 46.667377-21.931243v21.248558c-15.584179 7.481086-31.225131 14.763055-46.667377 21.703682v30.607027c18.96217-8.305997 37.924341-17.067116 56.772965-26.169577v21.305449c-26.683294 12.629665-53.366587 24.576646-80.049881 35.55649v-118.417335c26.683294-11.804754 53.366587-24.690426 80.049881-38.116557zm-134.722247 82.035934c-1.326602.149592-2.637456.416113-3.917334.796465-1.419324.43616-2.725102.862838-3.917335 1.280034-9.19722 3.318606-18.394441 6.46654-27.591661 9.443804v35.67027c9.19722-2.863482 18.394441-5.926081 27.591661-9.187797 1.192233-.426677 2.498011-.938691 3.917335-1.564485 1.357784-.588814 2.667552-1.283095 3.917334-2.076499 2.872138-1.70674 5.341538-4.016281 7.238554-6.769956 1.605546-2.358725 2.796066-4.975589 3.519923-7.737092.616103-2.31194.949721-4.690303.993527-7.082853-.010794-2.152474-.345742-4.290987-.993527-6.343278-.59577-2.024895-1.830874-3.801534-3.519923-5.063244-2.145858-1.376015-4.740289-1.865389-7.238554-1.365369zm256.273166-145.155815v124.618386l-23.504008 11.577193c-17.769938-18.7359-35.539876-37.130457-53.309814-55.183672v81.495475l-23.504008 11.463412v-121.660086l23.504008-12.174542c17.769938 17.920471 35.539876 36.068503 53.309814 54.643214v-82.491057c7.834669-4.134035 15.669339-8.230142 23.504008-12.288323zm108.493136-53.761413v22.557037c-18.96217 8.533558-37.92434 17.579129-56.772965 26.937597v26.994487c15.555793-7.585384 31.111585-14.914762 46.667378-21.988133v22.471701c-15.555793 6.940627-31.111585 14.18467-46.667378 21.732127v32.427519c18.96217-8.988681 37.924341-17.664464 56.772965-25.799789v22.557037c-26.683293 11.378077-53.366587 23.72329-80.049881 36.552072v-125.500187c26.683294-13.625247 53.366588-26.823816 80.049881-38.941468zm87.174889-32.996423c6.24985.501133 12.140155 3.131153 16.691251 7.45264 4.848133 4.943716 8.212096 11.153307 9.708177 17.920471-8.345625 3.9444-16.691251 8.059471-25.036877 12.345214-.643056-3.468278-2.408956-6.627479-5.024408-8.988681-2.451839-2.086679-5.505561-3.332623-8.71465-3.555649-3.599264-.278654-7.216727.205965-10.616544 1.42226-3.71727 1.253867-7.213921 3.087406-10.361067 5.433031-3.057311 2.242053-5.707426 4.993867-7.834669 8.135325-1.902791 2.659091-2.961306 5.83129-3.037353 9.102462-.248141 2.258584.685812 4.485345 2.469624 5.888154 1.865016 1.196332 4.030649 1.837502 6.245026 1.848938 2.546639.130906 5.099566.064335 7.635964-.199116 7.09662-.587868 14.193241-1.071436 21.289862-1.450705 3.526243-.211055 7.061914-.211055 10.588158 0 3.829396.219737 7.58851 1.125332 11.099114 2.673848 3.647393 1.67008 6.705168 4.406946 8.771423 7.850873 2.549134 4.741192 3.738001 10.097237 3.434765 15.474184.079852 6.765592-1.325314 13.466077-4.11604 19.627183-2.751165 6.00556-6.515523 11.490563-11.127501 16.213759-4.699948 4.836955-10.004993 9.043876-15.782885 12.515885-5.768306 3.542912-11.896432 6.460745-18.280894 8.704229-7.834488 2.957169-16.193166 4.264401-24.554308 3.8401-6.671951-.339612-13.020917-2.982948-17.968643-7.481085-5.028325-5.04766-8.166283-11.678127-8.88497-18.773827 8.033375-4.636566 16.123523-9.159352 24.156897-13.568356 1.017392 5.910408 5.027459 10.866028 10.588158 13.084788 5.944884 2.001796 12.407781 1.81013 18.224122-.540459 3.918856-1.391241 7.632987-3.304769 11.042342-5.689038 3.428314-2.292606 6.418402-5.182901 8.828196-8.533558 2.214303-2.965194 3.418484-6.565262 3.434764-10.268714.016342-1.253439-.165698-2.501552-.539343-3.697875-.378033-1.082956-1.01094-2.058673-1.845121-2.844519-1.036286-.909248-2.271103-1.562034-3.605084-1.905828-1.938371-.489247-3.934618-.709384-5.932774-.65424-10.616545.284452-21.233089.853356-31.849634 1.649822-2.384464.199116-5.137953.256006-8.288853.199116-3.150936-.08186-6.259551-.747303-9.168834-1.962718-3.099083-1.372075-5.676378-3.705412-7.352099-6.656175-2.167298-4.320269-3.147101-9.141052-2.838648-13.96659-.028886-8.460035 2.111753-16.785635 6.21664-24.178413 4.223243-7.584867 9.860679-14.286529 16.606092-19.740963 6.898976-5.628586 14.677184-10.07835 23.021437-13.170124 7.205175-2.886535 14.968715-4.102097 22.709187-3.555649zm120.500618-27.705617c6.57973 2.348451 12.364979 6.509037 16.691252 12.003871 4.758026 6.195015 8.07486 13.376915 9.708177 21.020997-8.345626 1.782565-16.691252 3.821137-25.036877 6.115716-.722196-3.889901-2.455262-7.520188-5.024408-10.524721-2.363395-2.634949-5.379492-4.597505-8.743037-5.689038-3.407059-1.13691-7.0246-1.496497-10.588158-1.052472-3.605542.425807-7.094897 1.546256-10.275906 3.299642-3.047894 1.632156-5.717647 3.890631-7.834669 6.62773-1.944792 2.494266-3.00367 5.567359-3.008968 8.732674-.155802 2.443907.743674 4.837109 2.469624 6.570839 1.778479 1.583078 3.910545 2.714727 6.21664 3.299642 2.520622.663459 5.080484 1.166989 7.66435 1.507595 7.096621 1.005064 14.193242 2.19028 21.289862 3.555649 3.570403.748857 7.095905 1.698532 10.559772 2.84452 3.97407 1.302479 7.719391 3.222207 11.099115 5.689038 3.717658 2.712014 6.726757 6.283561 8.771423 10.41094 2.491061 5.251738 3.679145 11.028789 3.463151 16.839554.141487 6.591743-1.27884 13.123164-4.144427 19.058279-2.665778 5.321334-6.452702 9.999268-11.099115 13.710582-4.779002 3.755201-10.113627 6.73994-15.81127 8.846455-5.904447 2.06112-12.030973 3.416899-18.252509 4.039217-8.204587 1.187654-16.565906.65491-24.554307-1.564485-6.983802-1.93959-13.243095-5.896839-17.99703-11.378077-4.931971-6.007087-8.018427-13.319232-8.884969-21.049442 8.061761-3.204825 16.123522-6.238979 24.185283-9.102462 1.168162 6.500575 4.997278 12.21487 10.559771 15.758637 5.483131 3.257933 11.918888 4.523638 18.224122 3.584094 3.831405-.486973 7.565288-1.561485 11.070729-3.185862 3.340605-1.475832 6.315932-3.670668 8.71465-6.428613 2.297428-2.701167 3.529237-6.151297 3.463151-9.69981.014524-1.330029-.176998-2.654262-.56773-3.925437-.36423-1.259748-.982562-2.431199-1.816735-3.441868-1.010785-1.180393-2.245942-2.147355-3.63347-2.844519-1.866386-.967204-3.851506-1.684473-5.904388-2.13339-10.616545-2.313542-21.233089-4.209888-31.849634-5.689038-2.384464-.312897-5.166339-.853356-8.288853-1.592931-3.256793-.776516-6.357541-2.104033-9.168833-3.925436-3.145594-2.06263-5.68388-4.930246-7.352099-8.305997-2.15151-4.680212-3.126129-9.817313-2.838649-14.962171-.15151-8.304078 2.000619-16.487266 6.21664-23.637954 4.120985-6.856029 9.813714-12.62879 16.606092-16.839554 7.008186-4.349223 14.835087-7.205656 22.993051-8.391332 7.606407-1.26143 15.405767-.626422 22.709186 1.848938z"/><filter id="d" height="103.4%" width="101.7%" x="-.8%" y="-1.7%"><feMorphology in="SourceAlpha" operator="dilate" radius="0.75" result="shadowSpreadOuter1"/><feOffset dx="0" dy="0" in="shadowSpreadOuter1" result="shadowOffsetOuter1"/><feMorphology in="SourceAlpha" operator="erode" radius="1" result="shadowInner"/><feOffset dx="0" dy="0" in="shadowInner" result="shadowInner"/><feComposite in="shadowOffsetOuter1" in2="shadowInner" operator="out" result="shadowOffsetOuter1"/><feGaussianBlur in="shadowOffsetOuter1" result="shadowBlurOuter1" stdDeviation="2"/><feColorMatrix in="shadowBlurOuter1" type="matrix" values="0 0 0 0 1   0 0 0 0 1   0 0 0 0 1  0 0 0 0.915820142 0"/></filter><mask id="e" fill="#fff"><path d="m0 0h463v782h-463z" fill="#fff" fill-rule="evenodd"/></mask></defs><g fill="none" fill-rule="evenodd" mask="url(#e)" opacity=".12"><g transform="translate(4 -204)"><ellipse cx="6.973913" cy="894.836372" fill="#fff" filter="url(#a)" rx="6.973913" ry="6.978571"/><g fill="none" fill-rule="nonzero" transform="translate(1)"><path d="m91.6227424 715.110792c8.3601407 2.404203 15.6145096 7.665709 20.5020346 14.869879 5.066582 8.143987 7.578893 17.621573 7.212627 27.209321.124998 10.497978-2.353239 20.863008-7.212627 30.166238-4.76593 9.122763-11.834305 16.83718-20.5020346 22.375899-9.5663269 5.963191-20.4922066 9.387939-31.7469179 9.951162-10.8773251.999661-21.82592-.882964-31.7469179-5.458923-8.4826902-4.00729-15.6093525-10.411565-20.50203464-18.423866-4.900866-8.173178-7.40072349-17.564364-7.21262714-27.095593-.20480443-9.42576 2.29866075-18.712076 7.21262714-26.754411 5.06811034-7.957651 12.13903424-14.439314 20.50203464-18.793481 9.8950339-5.153136 20.6598835-8.42136 31.7469179-9.638411 10.5713216-1.79918 21.4080723-1.25569 31.7469179 1.592186zm130.5087966-37.245779c4.474542 1.304245 8.220205 4.386745 10.364602 8.529568 2.394394 4.984676 3.534976 10.480018 3.322352 16.007155-.003944 6.313885-1.148764 12.574967-3.379144 18.48073-2.348221 6.178077-5.878599 11.837651-10.392998 16.661089-5.099471 5.403303-11.180593 9.784131-17.917984 12.908079-1.590185.739229-3.40754 1.50689-5.452064 2.274551s-3.63471 1.364731-4.770557 1.734346c-9.46539 3.070644-19.006503 5.96122-28.623339 8.671727v36.734005c-7.723758 1.876504-15.447516 3.724577-23.171275 5.458923v-106.960779c17.236475-4.890285 34.529743-10.576664 51.794614-16.860112 1.192639-.45491 2.839617-.995116 4.798953-1.677482 1.959336-.682365 3.833483-1.165707 5.423668-1.535322 5.855598-1.747722 12.071577-1.894973 18.003172-.426478zm-162.2557145 53.764708c-6.8505371.53151-13.4914492 2.611836-19.4229802 6.084425-5.0217583 3.051117-9.0627367 7.482049-11.6424296 12.76592-2.6759745 5.724976-3.9975005 11.990662-3.8618791 18.310138-.1626164 6.203207 1.1616465 12.355127 3.8618791 17.940524 2.5441089 4.99827 6.6257379 9.045163 11.6424296 11.543349 6.0556645 2.842073 12.7720294 3.972707 19.4229802 3.269667 6.9060304-.248863 13.6166965-2.360863 19.4229802-6.112857 5.1056761-3.498978 9.1371229-8.352645 11.6424296-14.016923 2.6426095-6.167228 3.9584547-12.822544 3.8618791-19.53271.220027-6.254054-1.1065728-12.465664-3.8618791-18.082683-2.5049947-4.750949-6.6394122-8.436219-11.6424296-10.377641-6.2288697-2.18646-12.9000261-2.801682-19.4229802-1.791209zm275.6132245-113.528546v20.954305c-18.968641 9.496252-37.937283 18.679753-56.79234 27.294617v24.678882c15.561101-6.880518 31.122203-14.083264 46.683304-21.608238v20.869009c-15.598963 7.297519-31.160064 14.329674-46.683304 21.096464v29.626032c18.968642-7.875635 37.937283-16.291475 56.79234-25.048497v20.954304c-26.6924 12.026691-53.384799 23.371016-80.077199 33.549633v-113.926592c26.6924-11.799236 53.384799-24.79261 80.077199-38.439919zm-134.768222 81.144621c-1.327055.149523-2.638357.415919-3.918671.796093-1.419809.398046-2.839617.824525-3.918672 1.222571-9.200359 3.260191-18.400718 6.321358-27.601077 9.183501v33.435906c9.200359-2.710507 18.400718-5.601083 27.601077-8.671727 1.192639-.398047 2.498863-.881389 3.918672-1.450027 1.350088-.562136 2.659474-1.217653 3.918671-1.961801 5.307826-2.957144 9.191101-7.943016 10.762148-13.817899.61758-2.194353.951592-4.458938.993866-6.738359-.011236-2.039846-.346722-4.064897-.993866-5.999129-.61122-1.939597-1.850096-3.620185-3.521125-4.776558-2.182862-1.281187-4.759256-1.716185-7.241023-1.222571zm256.360621-146.083063v126.294466l-23.512028 11.372757c-17.776003-19.163096-35.552005-37.586962-53.328007-55.470622v81.030893c-7.837343 3.525555-15.674686 7.221701-23.512029 10.832551v-120.124745c7.837343-4.113147 15.674686-8.264203 23.512029-12.453169 17.776002 17.514046 35.552004 35.653593 53.328007 54.418642v-83.134853zm108.530162-56.636329v23.456311c-18.968642 9.01291-37.937283 18.537594-56.79234 28.431892v27.692664c15.561101-7.818771 31.235787-15.46695 46.683303-22.745514v23.342583c-15.561101 7.164837-31.235787 14.642425-46.683303 22.290604v33.265314c18.968641-9.01291 37.937283-17.769933 56.79234-26.072045v23.456311c-26.6924 11.088438-53.3848 23.399447-80.077199 36.080071v-127.943515c26.692399-14.215946 53.384799-28.261301 80.077199-41.254676zm-473.9888676 73.837624c8.1788983 1.963486 15.4245836 6.706236 20.5020346 13.419853 5.034414 7.311747 7.565182 16.060866 7.212627 24.93477.285046 19.789015-10.379486 38.114387-27.7146616 47.623419-9.766352 5.253566-20.6608444 8.053792-31.7469179 8.159954-10.8802351.606728-21.7515465-1.340497-31.7469179-5.686379-8.2474961-3.633497-15.3395656-9.465752-20.50203464-16.860112-4.83673938-7.064487-7.35753196-15.461138-7.21262714-24.024949-.17069239-8.364555 2.35884324-16.560989 7.21262714-23.371015 5.32809894-7.154404 12.38224624-12.838081 20.50203464-16.51893 10.0367793-4.637209 20.758283-7.613817 31.7469179-8.813886 10.5541313-1.71336 21.3420634-1.326902 31.7469179 1.137275zm130.5087966-36.534981c4.41331 1.123058 8.16529 4.025494 10.364602 8.017793 2.364596 4.660028 3.507816 9.84523 3.322352 15.068903-.010164 6.054763-1.15643 12.053709-3.379144 17.684637-2.367091 5.924069-5.90172 11.310038-10.392998 15.836564-5.147006 5.158364-11.227972 9.288202-17.917984 12.16885-1.590185.720275-3.40754 1.431072-5.452064 2.132392-.954112.344974-1.809278.640413-2.5655.894985l-.623958.2084c-.599727.198796-1.12676.369387-1.581099.517233-9.46539 2.843189-19.006503 5.496832-28.623339 7.96093v34.288862c-7.685897 1.743823-15.409655 3.336008-23.171275 4.776558v-99.028281c17.22701-4.833422 34.491881-10.377641 51.794614-16.632657l4.798953-1.64905c2.016128-.653933 3.833483-1.194139 5.423668-1.535322 5.841193-1.776985 12.040369-2.021739 18.003172-.710797zm-162.2557145 51.660748c-6.7753128.492049-13.3816445 2.348791-19.4229802 5.458923-4.8927256 2.590518-8.9351654 6.539323-11.6424296 11.372757-2.6538434 4.960652-3.9840359 10.523151-3.8618791 16.149315-.1385936 5.537442 1.1941275 11.012398 3.8618791 15.864996 2.6956347 4.638867 6.7638909 8.324773 11.6424296 10.548232 6.1014475 2.705468 12.7624195 3.904781 19.4229802 3.497123v-.14216c6.8024566-.033396 13.4852531-1.794239 19.4229802-5.11774 5.0077448-2.954557 9.0519757-7.300167 11.6424296-12.510033 2.631002-5.528301 3.9525729-11.589878 3.8618791-17.713069.2109347-5.734873-1.1229759-11.420945-3.8618791-16.462066-2.635105-4.421092-6.7657408-7.749933-11.6424296-9.382524-6.2806728-1.945167-12.9125839-2.479106-19.4229802-1.563754zm275.6132245-111.424586v20.613122c-18.968641 9.581548-37.937283 18.736617-56.79234 27.323049v23.854357c15.561101-6.747836 31.122203-13.836854 46.683304-21.267055v20.44253c-15.589498 7.164837-31.235787 14.045355-46.683304 20.527827v28.801506c18.968642-7.449155 37.937283-15.495381 56.79234-23.911221v20.613122c-26.6924 11.287461-53.384799 21.920989-80.077199 31.275081v-109.434353c26.6924-11.827667 53.384799-24.934769 80.077199-38.837965zm317.327198-13.647308c6.302005.482801 12.224005 3.205508 16.696948 7.676611 4.911927 5.299536 8.271858 11.85079 9.71149 18.93564-8.348474 4.283739-16.696948 8.728591-25.045422 13.334558-.609746-3.62495-2.372639-6.955723-5.026122-9.496252-2.428032-2.142717-5.489763-3.430861-8.717624-3.667715-3.617401-.22352-7.24029.339026-10.620167 1.64905-3.760728 1.415673-7.262571 3.442573-10.364602 5.999129-3.067013 2.388102-5.715651 5.270678-7.837343 8.529568-1.909045 2.825656-2.96397 6.142484-3.03839 9.553116-.262256 2.341295.6655 4.658263 2.470466 6.169721 1.851251 1.233588 4.02343 1.895947 6.247158 1.904936 2.548348.106887 5.101069.030874 7.638569-.227455 7.099043-.682365 14.198085-1.232048 21.297128-1.64905 3.52739-.212864 7.064381-.212864 10.591771 0 3.844422.254014 7.608734 1.217964 11.102903 2.84319 3.712481 1.804904 6.777122 4.714514 8.774416 8.330544 2.56323 5.08196 3.748087 10.748977 3.435937 16.433634.089729 7.176334-1.312454 14.292892-4.117445 20.897441-2.715626 6.278225-6.479941 12.04718-11.131299 17.059135-4.655571 5.0543-9.965404 9.462416-15.78827 13.107102-5.741186 3.647118-11.875874 6.63248-18.287133 8.899183-7.825093 2.991389-16.206371 4.242886-24.562687 3.667714-6.746063-.476137-13.109492-3.314596-17.974776-8.017794-5.054446-5.393528-8.180197-12.312828-8.888001-19.674869 8.036116-4.776558 16.129024-9.46782 24.16514-14.073787 1.703771 7.079541 5.224896 11.657076 10.591772 13.8179 5.914407 2.15659 12.422982 2.004329 18.230341-.426479 3.942741-1.438514 7.661808-3.429617 11.04611-5.913833 3.462007-2.412747 6.454839-5.43825 8.831209-8.927615 2.22946-3.171734 3.429155-6.954038 3.435936-10.83255.019902-1.31836-.162052-2.63199-.539527-3.89517-.353366-1.168395-.987065-2.232397-1.845751-3.099076-1.018454-.958991-2.256983-1.652268-3.606313-2.018664-1.933122-.525139-3.932514-.764602-5.9348-.710798-10.620168.284319-21.240335.84348-31.860503 1.677482-2.75758.229037-5.525713.304972-8.291681.227455-3.160233-.086405-6.274269-.781429-9.171963-2.047096-3.133802-1.458978-5.713312-3.892153-7.354608-6.937382-2.173599-4.529618-3.151253-9.541502-2.839617-14.557129-.030895-8.817776 2.104754-17.507815 6.218761-25.304384 4.188195-7.933241 9.822465-15.011459 16.61176-20.869009 6.8321-5.989795 14.615682-10.794587 23.029293-14.215946 7.140768-3.153629 14.923928-4.575843 22.716936-4.151056zm-452.09542 93.995836c-1.325293.174496-2.635331.45014-3.918671.824525-1.419809.398046-2.726033.796093-3.918672 1.194139-9.200359 3.165417-18.400718 6.131812-27.601077 8.899182v31.189786c9.200359-2.502006 18.400718-5.203036 27.601077-8.103089 1.192639-.369615 2.498863-.852957 3.918672-1.393163 1.35224-.51304 2.66244-1.130939 3.918671-1.848073 2.809307-1.502914 5.275312-3.575027 7.241023-6.084425 1.589447-2.097179 2.782756-4.467528 3.521125-6.994245.615338-2.078337.949604-4.229894.993866-6.397176-.009537-1.937935-.345541-3.860372-.993866-5.686378-.623351-1.858011-1.866784-3.444378-3.521125-4.492239-2.21224-1.199124-4.771954-1.591102-7.241023-1.108844zm256.360621-147.277202v127.943515l-23.512028 11.11687c-17.776003-19.599051-35.552005-38.212463-53.328007-55.840236v80.632846c-7.837343 3.639282-15.674686 7.193269-23.512029 10.66196v-118.788446c7.837343-4.170011 15.674686-8.41584 23.512029-12.737488 17.776002 17.059135 35.552004 35.122864 53.328007 54.191187v-83.902514zm316.27654-405.02817017c6.919347 2.7214765 12.775698 7.60790862 16.696948 13.93162717 4.929147 7.9509195 8.230303 16.8037355 9.71149 26.0436133-8.348474 2.7673709-16.696948 5.7906288-25.045422 9.0697737-.641088-4.6466013-2.362642-9.0776317-5.026122-12.936511-2.173495-3.0809516-5.220162-5.4381561-8.74602-6.7667904-3.398236-1.2106086-7.066606-1.4469401-10.591771-.6823654-3.725902.7509117-7.237626 2.3244335-10.279414 4.6059666-3.161136 2.2838513-5.827239 5.1854349-7.837343 8.5295676-1.978309 3.265362-3.019755 7.0133815-3.009994 10.832551-.212941 2.8885786.669164 5.7514124 2.470467 8.0177936 1.685039 1.8104896 3.837265 3.1191932 6.218761 3.7814417 2.505645.7549103 5.070377 1.2970349 7.666966 1.6206178 7.099043.9951163 14.198085 2.1892557 21.297127 3.6677141 3.591815.7371624 7.122963 1.7446153 10.563376 3.0137806 4.088754 1.5321997 7.854667 3.8177345 11.102902 6.7383585 3.895146 3.5430644 6.901251 7.9556165 8.774417 12.8796472 2.526493 6.8054911 3.703233 14.0389921 3.464332 21.2954871.16676 8.283496-1.240143 16.523269-4.145841 24.280836-.393909 1.038264-.821128 2.061839-1.280705 3.069231 2.060386 5.018896 3.541263 10.271156 4.404284 15.654819-8.348474 2.767371-16.696948 5.790629-25.045422 9.069774-.081724-.592334-.181005-1.181164-.297558-1.765752-1.52367.886377-3.09198 1.698295-4.700168 2.432252-5.782934 2.680347-11.939718 4.463554-18.258737 5.288332-7.456714 1.192973-15.076883.637903-22.264673-1.607275-.019503 2.624423.858709 5.186418 2.500939 7.252655 1.685039 1.810489 3.837265 3.119193 6.218761 3.781442 2.505645.75491 5.070377 1.297034 7.666966 1.620617 7.099043.995117 14.198085 2.189256 21.297127 3.667715 3.591815.737162 7.122963 1.744615 10.563376 3.01378 4.088754 1.5322 7.854667 3.817735 11.102902 6.738359 3.895146 3.543064 6.901251 7.955616 8.774417 12.879647 2.526493 6.805491 3.703233 14.038991 3.464332 21.295487.16676 8.283496-1.240143 16.523269-4.145841 24.280836-2.469716 6.509657-6.248806 12.441874-11.102902 17.42875-1.026924 1.036037-2.094137 2.028208-3.198678 2.974448 3.013321 2.316901 5.651901 5.119495 7.798858 8.313013 4.883587 7.363079 8.190273 15.659555 9.71149 24.366132-8.348474 2.445143-16.696948 5.146172-25.045422 8.103089-.660587-4.396901-2.386188-8.565028-5.026122-12.140418-2.229147-2.954443-5.267666-5.196689-8.746021-6.454039-3.40019-1.186269-7.049319-1.470339-10.591771-.824525-7.440747 1.382707-13.989358 5.760791-18.116756 12.111986-1.977516 3.003245-3.024685 6.524576-3.009994 10.121753-.202008 2.739525.686039 5.447898 2.470467 7.534452 1.719591 1.730395 3.864695 2.975924 6.218761 3.61085 2.509794.732046 5.073424 1.264431 7.666966 1.592186 7.099042.985639 14.198085 2.198733 21.297127 3.639282 3.582137.703807 7.111612 1.653784 10.563375 2.84319 4.047743 1.449351 7.80686 3.605621 11.102903 6.368743 3.780842 3.29099 6.729346 7.431884 8.604039 12.083555 2.527316 6.319907 3.707328 13.098984 3.464333 19.902324.161162 7.719375-1.249448 15.390753-4.145841 22.546491-2.522457 6.114943-6.305933 11.627747-11.102902 16.177747-4.627667 4.334147-9.981705 7.818169-15.816667 10.292345l-.074086.031115c1.306629.316729 2.601138.695021 3.879173 1.134592 6.691265 2.474153 12.501096 6.876581 16.696948 12.652192 4.838531 6.791324 8.151551 14.550828 9.71149 22.745514-8.348474 2.10396-16.696948 4.463807-25.045422 7.079541-.685547-4.156191-2.415084-8.069668-5.026122-11.372757-2.277917-2.826262-5.311058-4.946215-8.746021-6.112857-3.402363-1.168112-7.037429-1.490118-10.591771-.938252-3.645023.523735-7.143777 1.791452-10.279413 3.724578-3.099312 1.841027-5.771117 4.32234-7.837343 7.278564-1.962513 2.744151-3.015321 6.035829-3.009994 9.410957-.187116 2.591479.707417 5.144621 2.470467 7.051109 1.745099 1.666224 3.885287 2.859975 6.218761 3.468691 2.511249.71329 5.074892 1.226664 7.666966 1.535322 7.099042 1.023548 14.198085 2.227165 21.297127 3.61085 3.57994.713251 7.108783 1.663058 10.563375 2.843189 4.007529 1.369604 7.759678 3.396968 11.102903 5.99913 3.793905 3.030991 6.803464 6.931762 8.774416 11.372757 2.507974 5.767131 3.69182 12.024146 3.464333 18.310138.153915 7.148216-1.261343 14.243112-4.145841 20.783713-2.582504 5.727255-6.369789 10.82858-11.102902 14.955176-4.701775 4.04729-10.048141 7.276444-15.816667 9.553116-5.891088 2.297478-12.058792 3.807885-18.343926 4.492239-8.222619 1.229512-16.615921.598008-24.562687-1.848073-7.089773-2.220785-13.357617-6.50689-18.003171-12.31101-4.972261-6.5676-8.046821-14.376774-8.888002-22.574922 8.064513-3.430782 16.129025-6.681495 24.193537-9.752139 1.053821 6.889506 4.868835 13.050495 10.563375 17.059135 5.389185 3.504077 11.885019 4.881872 18.230341 3.866737 3.856698-.523011 7.599431-1.685679 11.074507-3.440259 3.43283-1.673148 6.442439-4.103305 8.802812-7.107973 2.323355-3.00619 3.546216-6.719533 3.464333-10.5198.014235-1.441404-.177-2.877469-.567923-4.264784-.354487-1.349397-.972132-2.615231-1.817355-3.724577-.994481-1.263993-2.229995-2.317433-3.63471-3.099077-1.849301-1.032168-3.839032-1.788834-5.906403-2.246119-10.620168-2.445143-21.240335-4.435375-31.860503-5.970698-2.385278-.341182-5.168103-.881388-8.291681-1.649049-3.281226-.821703-6.388035-2.227786-9.171963-4.151057-3.187879-2.25801-5.724702-5.317796-7.354608-8.87075-2.162768-5.03625-3.134562-10.504608-2.839617-15.978723-.157282-8.859556 1.985548-17.608208 6.218761-25.38968 4.047716-7.331441 9.732895-13.627061 16.611759-18.395435 2.33284-1.615495 4.772602-3.056918 7.299217-4.315933-2.748536-.453351-5.465213-1.129121-8.122706-2.024378-7.198683-2.511307-13.47315-7.13885-18.003171-13.277694-5.008584-7.114291-8.072556-15.416043-8.888002-24.081813 8.064513-3.639282 16.129025-7.136405 24.193537-10.406072 1.007526 7.192282 4.802231 13.698379 10.563375 18.111115 5.284727 3.754286 11.840593 5.257284 18.230341 4.179488 3.882123-.560862 7.632714-1.812631 11.074507-3.696146 3.48647-1.844625 6.499331-4.472031 8.802812-7.676611 2.349877-3.317455 3.565131-7.306905 3.464333-11.372757.015929-1.553768-.17506-3.10273-.567923-4.605966-.345315-1.439974-.962152-2.800654-1.817355-4.008897-.967112-1.342465-2.205506-2.466171-3.63471-3.2981-1.832847-1.105128-3.825114-1.9203-5.906403-2.41671-10.620168-2.558871-21.240335-4.634399-31.860503-6.226585-2.791953-.42213-5.559699-.99156-8.291681-1.705913-3.300694-.881074-6.410267-2.365522-9.171963-4.378512-3.226456-2.44398-5.761252-5.687505-7.354608-9.410956-2.172225-5.412534-3.141214-11.233779-2.839617-17.059135-.201356-16.553171 6.548189-31.832126 17.778325-42.721341-5.498011-2.907424-10.233056-7.119248-13.774465-12.294371-5.040161-7.657627-8.094873-16.452195-8.888002-25.588703 8.064513-3.790919 16.129025-7.487065 24.193537-11.088438 1.70377 8.927614 5.224895 15.296358 10.563375 19.305255 5.16398 3.953145 11.736254 5.580259 18.145153 4.492239 3.908063-.6036 7.666121-1.944696 11.074506-3.952033 3.53297-2.027996 6.546591-4.850737 8.802813-8.245249 2.358459-3.622192 3.566228-7.874528 3.464333-12.197282.018294-1.666353-.172506-3.328409-.567924-4.947149-.338021-1.530452-.954035-2.985687-1.817355-4.293216-.955584-1.413748-2.193121-2.61412-3.634709-3.525554-1.81691-1.16853-3.811852-2.032812-5.906404-2.558871-10.620167-2.672597-21.240335-4.823944-31.860502-6.454039-2.794964-.430122-5.563305-1.01866-8.291682-1.762777-3.325016-.929649-6.439383-2.493618-9.171963-4.605967-3.267199-2.626894-5.800694-6.054842-7.354608-9.951162-2.178472-5.757996-3.14522-11.904571-2.839617-18.054252-.131697-8.015994 1.210027-15.970645 3.940856-23.471527l.148193.226806c-5.040161-7.657627-8.094873-16.452195-8.888002-25.588703 8.064513-3.790919 16.129025-7.487065 24.193537-11.088438.706825 3.703703 1.726431 6.967003 3.058819 9.804111l.377118-.320426c6.686612-5.628247 14.545184-9.68876 23.000897-11.884531 7.462901-2.111481 15.393873-1.873252 22.716936.682366.988578.388821 1.955457.821834 2.898095 1.296917l-.001685-.175507c.018294-1.666352-.172506-3.328409-.567924-4.947149-.338021-1.530452-.954035-2.985687-1.817355-4.293216-.955584-1.413748-2.193121-2.614119-3.634709-3.525554-1.81691-1.168529-3.811852-2.032811-5.906404-2.55887-10.620167-2.672598-21.240335-4.8239449-31.860502-6.45404-2.794964-.4301217-5.563305-1.0186597-8.291682-1.7627774-3.325016-.9296484-6.439383-2.4936179-9.171963-4.6059665-3.267199-2.6268939-5.800694-6.0548422-7.354608-9.9511623-2.178472-5.7579958-3.14522-11.9045708-2.839617-18.0542516-.164244-9.9970322 1.963193-19.8986542 6.218761-28.9436663 3.928873-8.2776693 9.595011-15.6092752 16.61176-21.4945105 6.686612-5.62824692 14.545184-9.68875987 23.000897-11.88453098 7.462901-2.11148093 15.393873-1.87325244 22.716936.68236541zm-207.746378 345.26433217v24.3377c-18.968642 9.553116-37.937283 19.53271-56.79234 29.739759v28.431893c15.561101-8.074658 31.122202-15.950292 46.683303-23.626903v24.167109c-15.561101 7.392292-31.235787 15.068903-46.683303 22.745513v34.118271c18.968641-9.069773 37.937283-17.940524 56.79234-26.356364v24.3377c-26.6924 11.657076-53.3848 23.939653-80.077199 36.478118v-130.786705c26.692399-14.983607 53.384799-29.711327 80.077199-43.586091zm-473.9888676 82.395624c7.9808698 1.558405 15.2038936 5.76545 20.5020346 11.941395 5.002172 6.49598 7.556154 14.550139 7.212627 22.745514.102805 8.877261-2.405585 17.588568-7.212627 25.048497-5.053176 7.700826-12.1538942 13.835608-20.5020346 17.713069-9.9807766 4.43448-20.8333798 6.553302-31.7469179 6.198152-10.8908172.121851-21.6924259-1.977342-31.7469179-6.16972-8.0116143-3.26135-15.065736-8.504793-20.50203464-15.239495-4.71347147-5.894759-7.25995612-13.232641-7.21262714-20.783713-.08919775-7.290931 2.47453179-14.365215 7.21262714-19.902325 5.61219934-6.298561 12.63936934-11.171145 20.50203464-14.215946 10.1633885-4.1118 20.8476683-6.791014 31.7469179-7.960929 10.536952-1.658745 21.2832974-1.447012 31.7469179.625501zm130.5087966-36.023207c4.307969.894843 8.057206 3.527753 10.364602 7.278564 2.338215 4.36311 3.484298 9.267063 3.322352 14.215946.016544 5.85467-1.132203 11.653955-3.379144 17.059136-2.387003 5.688151-5.925794 10.819076-10.392998 15.068902-5.210353 4.878767-11.287979 8.736308-17.917984 11.372757-1.590185.653934-3.40754 1.307867-5.452064 1.990233-2.044524.682365-3.63471 1.165707-4.770557 1.478458-9.46539 2.653643-19.006503 5.089309-28.623339 7.306996v31.84372c-7.723758 1.535322-15.447516 2.871621-23.171275 4.037329v-90.982056c17.236475-4.719694 34.529743-10.235481 51.794614-16.433633l4.798953-1.64905c2.016128-.682366 3.833483-1.19414 5.423668-1.563754 5.831878-1.783862 12.007102-2.134947 18.003172-1.023548zm-162.2557145 49.670515c-6.7120654.427758-13.2918905 2.065152-19.4229802 4.833422-4.72616 2.106312-8.7619304 5.506537-11.6424296 9.809003-5.1488037 8.613193-5.1488037 19.363789 0 27.976982 2.8718845 4.228651 6.9199203 7.520582 11.6424296 9.46782 6.1534249 2.531484 12.7742353 3.723566 19.4229802 3.497123 6.7099617.161621 13.3637076-1.260409 19.4229802-4.151057 4.8942333-2.430225 8.949292-6.272522 11.6424296-11.031574 2.6243291-4.889922 3.9538792-10.371427 3.8618791-15.921859.1946449-5.210383-1.1485984-10.362663-3.8618791-14.813016-2.778249-4.076439-6.8992717-7.045295-11.6424296-8.387408-6.3261681-1.708043-12.9278459-2.142911-19.4229802-1.279436zm275.6132245-109.747104v20.243508c-18.93078 9.685798-37.86156 18.840867-56.79234 27.465208v23.058264c15.561101-6.624631 31.235787-13.67574 46.683304-21.0396v19.902324c-15.598963 7.05111-31.160064 13.685218-46.683304 19.902325v27.721095c18.93078-7.070064 37.86156-14.708766 56.79234-22.916105v20.243507c-26.6924 11.173734-53.384799 21.153328-80.077199 29.768191v-104.998978c26.6924-11.799235 53.384799-25.162224 80.077199-39.349739zm317.298802-290.6182353c6.412611.3767899 12.415545 3.2798135 16.696948 8.0746574 4.956395 5.9920264 8.26476 13.1757008 9.597905 20.840577-8.348474 5.004013-16.696948 10.1312309-25.045422 15.3816537-.542276-3.9471918-2.287548-7.6307721-4.997725-10.548232-2.337304-2.310793-5.437871-3.6860619-8.717625-3.8667374-3.653027-.1836311-7.296326.518635-10.620167 2.0470963-3.764509 1.6774602-7.227758 3.9635829-10.251017 6.7667903-3.107659 2.7751335-5.753342 6.0288094-7.837343 9.6384115-1.923512 3.1865364-2.971705 6.8254952-3.03839 10.5482325-.32064 2.484217.553752 4.973568 2.356882 6.709926 1.818114 1.314797 4.004417 2.021264 6.247157 2.018664 2.552085.100524 5.108059-.023155 7.63857-.369614 7.099042-.796093 14.198085-1.468981 21.297127-2.018665 3.526369-.244471 7.065402-.244471 10.591771 0 3.871617.25333 7.650313 1.298376 11.102903 3.070645 3.823487 2.104583 6.892092 5.356028 8.774416 9.297229 2.585492 5.792501 3.762987 12.116097 3.435937 18.452298.101402 7.979774-1.295302 15.9076-4.117445 23.371015-1.114932 2.961891-2.438602 5.834825-3.958837 8.59785 3.599212 5.265834 6.040281 11.257109 7.139208 17.575356-8.348474 5.004013-16.696948 10.131231-25.045422 15.381654-.458792-3.339517-1.778686-6.490341-3.815496-9.148153-.372141.26119-.747585.518914-1.125437.773311-5.677493 3.884885-11.821691 7.03727-18.287133 9.382525-6.246941 2.498615-12.902431 3.758705-19.598364 3.728289-1.667115 3.01347-2.573963 6.395467-2.635837 9.849588-.32064 2.484218.553752 4.973568 2.356882 6.709927 1.818114 1.314797 4.004417 2.021264 6.247157 2.018664 2.552085.100523 5.108059-.023155 7.63857-.369614 7.099042-.796093 14.198085-1.468981 21.297127-2.018665 3.526369-.244471 7.065402-.244471 10.591771 0 3.871617.25333 7.650313 1.298375 11.102903 3.070645 3.823487 2.104583 6.892092 5.356028 8.774416 9.297228 2.585492 5.792502 3.762987 12.116097 3.435937 18.452299.101402 7.979774-1.295302 15.9076-4.117445 23.371015-2.593868 6.890783-6.317536 13.30009-11.017714 18.964072-3.288364 3.925368-6.961696 7.503514-10.961837 10.682072 5.933143.679008 11.454772 3.423079 15.590413 7.770226 4.956612 5.645089 8.31029 12.517978 9.71149 19.902325-8.348474 4.624921-16.696948 9.36357-25.045422 14.215946-.580827-3.77449-2.340271-7.267947-5.026122-9.979594-2.374128-2.243468-5.45922-3.581688-8.717624-3.781442-3.632612-.217499-7.26648.405121-10.620167 1.819641-7.49137 3.115039-13.817901 8.504824-18.088361 15.410086-1.919284 3.010742-2.970741 6.493768-3.03839 10.06489-.273625 2.425574.647841 4.832884 2.470467 6.454039 1.844936 1.2537 4.017597 1.935983 6.247157 1.961801 2.550448.105921 5.105275.001317 7.63857-.312751 7.099043-.739229 14.198085-1.336299 21.297127-1.791209 3.526447-.242223 7.065325-.242223 10.591772 0 3.852811.200119 7.627216 1.166655 11.102902 2.843189 3.759641 1.965707 6.823337 5.043185 8.774417 8.813887 2.572546 5.444027 3.753256 11.442936 3.435936 17.457181.096122 7.582137-1.303089 15.108735-4.117444 22.148444-2.685156 6.662817-6.488237 12.816942-11.244884 18.196411-4.611092 5.262352-9.923713 9.864123-15.78827 13.675741-5.713865 3.733059-11.853185 6.7684-18.287133 9.041341-7.802912 3.07056-16.210803 4.287101-24.562687 3.553987-6.817327-.600242-13.194245-3.62628-17.974776-8.529568-5.082734-5.723598-8.197984-12.928579-8.888001-20.556258 8.036116-4.947149 16.129024-9.809003 24.16514-14.557129 1.703771 7.392292 5.224896 12.197282 10.591772 14.500265 5.881714 2.298484 12.430721 2.186132 18.230341-.31275 3.954391-1.499652 7.674124-3.558132 11.04611-6.112857 3.47788-2.565126 6.468831-5.733168 8.831209-9.354093 2.22621-3.375375 3.420326-7.327834 3.435936-11.372757.017319-1.392931-.164362-2.781187-.539527-4.122624-.351012-1.219583-.983244-2.339554-1.845751-3.269668-1.006146-1.000206-2.245711-1.733154-3.606313-2.132392-1.926784-.561312-3.928806-.820272-5.9348-.767661-10.620168.284319-21.240335.871912-31.860503 1.762778-2.75817.218285-5.526233.284726-8.291681.199023-3.172507-.061621-6.296934-.788019-9.171963-2.132392-3.164769-1.53715-5.745647-4.061411-7.354608-7.193269-2.181172-4.749405-3.156614-9.964815-2.839617-15.18263-.032784-9.180916 2.097829-18.240108 6.218761-26.44166 4.164748-8.279545 9.792846-15.735319 16.61176-22.006285 1.197386-1.117964 2.426039-2.199412 3.684209-3.243187-1.501865-.018373-3.006052-.103355-4.507698-.253935-6.894021-.774809-13.276888-4.01569-17.974776-9.126638-5.106163-6.053257-8.211494-13.54324-8.888001-21.437647 8.036116-5.11774 16.129024-10.150185 24.16514-15.125766 1.703771 7.733474 5.234361 12.803829 10.591772 15.211062 5.845321 2.458861 12.448028 2.376481 18.230341-.227455 3.983834-1.548632 7.708646-3.696209 11.04611-6.368744 3.518309-2.689867 6.511944-6.00532 8.831209-9.780571 2.250526-3.616778 3.441063-7.793822 3.435936-12.055122.016701-1.467741-.164784-2.93101-.539527-4.35008-.341255-1.274241-.973064-2.451856-1.845751-3.440259-.986126-1.050515-2.229292-1.824796-3.606313-2.246119-1.918957-.600002-3.92578-.869197-5.9348-.796093-10.620168.284319-21.240335.900343-31.860503 1.848073-2.756778.243268-5.525735.319225-8.291681.227455-3.178255-.066567-6.305529-.813016-9.171963-2.189256-3.195699-1.629172-5.776647-4.253278-7.354608-7.477587-2.185012-4.959368-3.158428-10.368627-2.839617-15.779701-.031618-9.545 2.094393-18.973426 6.218761-27.578935.336814-.703803.683461-1.402341 1.039801-2.095422-1.143772-.91287-2.223432-1.918701-3.226306-3.009752-5.106163-6.053257-8.211494-13.54324-8.888001-21.437646 8.036116-5.117741 16.129024-10.150186 24.16514-15.125767 1.459741 6.625815 4.260471 11.296751 8.402189 14.012806 5.517418-4.664641 11.603813-8.623506 18.119834-11.779254 6.994271-3.686448 14.815314-5.516917 22.716936-5.316763.170092.009994.339896.021765.509388.035302 1.570111-3.149875 2.391281-6.632315 2.387021-10.172921.016701-1.467741-.164784-2.93101-.539527-4.35008-.341255-1.274241-.973064-2.451856-1.845751-3.440259-.986126-1.050515-2.229292-1.824796-3.606313-2.246119-1.918957-.600002-3.92578-.869197-5.9348-.796093-10.620168.284319-21.240335.900343-31.860503 1.848073-2.756778.243268-5.525735.319225-8.291681.227455-3.178255-.066567-6.305529-.813016-9.171963-2.189256-3.195699-1.629172-5.776647-4.253277-7.354608-7.477587-2.185012-4.959367-3.158428-10.368627-2.839617-15.7797-.031618-9.545001 2.094393-18.9734264 6.218761-27.5789359 4.138326-8.6473935 9.760945-16.5000921 16.61176-23.2004241 6.729777-6.6332251 14.499694-12.1174273 23.000897-16.2346105 6.994271-3.6864488 14.815314-5.5169174 22.716936-5.3167638zm-452.067024 370.4265573c-1.325293.174496-2.635331.45014-3.918671.824525-1.419809.369614-2.839617.767661-3.918672 1.165707-9.200359 3.108554-18.400718 6.008607-27.601077 8.700159v28.858371c9.200359-2.331415 18.400718-4.871331 27.601077-7.619747 1.192639-.369615 2.498863-.796093 3.918672-1.307867 1.34508-.496851 2.654399-1.085836 3.918671-1.762777 2.781974-1.371255 5.248058-3.307872 7.241023-5.686379 1.579194-1.966949 2.773775-4.214427 3.521125-6.624631.616994-1.961127.951649-4.0003.993866-6.055993-.010446-1.826802-.347031-3.637019-.993866-5.345196-.638304-1.776279-1.886259-3.267647-3.521125-4.20792-2.244765-1.102146-4.789997-1.431943-7.241023-.938252zm256.360621-265.598171v246.435075l-23.512028 10.946279c-17.776003-19.88337-35.552005-38.563123-53.328007-56.03926v80.2348c-7.837343 3.440259-15.674686 6.852086-23.512029 10.178618v-234.095634c7.837343-4.321648 15.674686-8.681205 23.512029-13.078671 17.776002 16.717953 35.552004 34.601613 53.328007 53.850004v-84.584879zm-365.4587056 165.217726c7.9808698 1.558405 15.2038936 5.76545 20.5020346 11.941395 5.002172 6.49598 7.556154 14.550139 7.212627 22.745514.102805 8.877261-2.405585 17.588568-7.212627 25.048497-5.053176 7.700826-12.1538942 13.835608-20.5020346 17.713069-9.9807766 4.43448-20.8333798 6.553302-31.7469179 6.198152-10.8908172.121851-21.6924259-1.977342-31.7469179-6.16972-8.0116143-3.26135-15.065736-8.504793-20.50203464-15.239495-4.71347147-5.894759-7.25995612-13.232641-7.21262714-20.783713-.08919775-7.29093 2.47453179-14.365215 7.21262714-19.902324 5.61219934-6.298562 12.63936934-11.171146 20.50203464-14.215947 10.1633885-4.111799 20.8476683-6.791014 31.7469179-7.960929 10.536952-1.658745 21.2832974-1.447012 31.7469179.625501zm130.5087966-36.023207c4.307969.894844 8.057206 3.527753 10.364602 7.278564 2.338215 4.36311 3.484298 9.267063 3.322352 14.215946.016544 5.85467-1.132203 11.653955-3.379144 17.059136-2.387003 5.688151-5.925794 10.819076-10.392998 15.068903-5.210353 4.878766-11.287979 8.736307-17.917984 11.372756-1.590185.653934-3.40754 1.307868-5.452064 1.990233s-3.63471 1.165708-4.770557 1.478458c-9.46539 2.653644-19.006503 5.089309-28.623339 7.306997v31.843719c-7.723758 1.535322-15.447516 2.871621-23.171275 4.037329v-90.982056c17.236475-4.719694 34.529743-10.235481 51.794614-16.433633l4.798953-1.64905c2.016128-.682365 3.833483-1.19414 5.423668-1.563754 5.831878-1.783862 12.007102-2.134946 18.003172-1.023548zm-162.2557145 49.670516c-6.7120654.427757-13.2918905 2.065151-19.4229802 4.833421-4.72616 2.106312-8.7619304 5.506538-11.6424296 9.809003-5.1488037 8.613193-5.1488037 19.363789 0 27.976982 2.8718845 4.228651 6.9199203 7.520582 11.6424296 9.46782 6.1534249 2.531484 12.7742353 3.723566 19.4229802 3.497123 6.7099617.161622 13.3637076-1.260409 19.4229802-4.151056 4.8942333-2.430226 8.949292-6.272523 11.6424296-11.031575 2.6243291-4.889922 3.9538792-10.371427 3.8618791-15.921859.1946449-5.210383-1.1485984-10.362663-3.8618791-14.813016-2.778249-4.076439-6.8992717-7.045295-11.6424296-8.387408-6.3261681-1.708043-12.9278459-2.142911-19.4229802-1.279435zm505.7357855-241.7848122v25.2475202c-18.968642 10.121754-37.937283 20.613122-56.79234 31.275082v29.142689c15.561101-8.330544 31.235787-16.575793 46.683303-24.565155v25.020065c-15.561101 7.648179-31.235787 15.552246-46.683303 23.570039v34.971228c14.885672-7.184456 29.771344-14.281365 44.602123-21.153322 4.063008-2.292884 8.126612-4.572463 12.190217-6.836227v26.425795c-3.890531 1.682492-7.781062 3.381292-11.671592 5.094728-15.074175 8.160023-30.133344 16.527159-45.120748 25.002079v29.142689c15.561101-8.330544 31.235787-16.575793 46.683303-24.565155v25.020065c-15.561101 7.648179-31.235787 15.552245-46.683303 23.570039v34.971227c18.968641-9.155069 37.937283-18.167979 56.79234-26.75441v25.190656c-26.6924 11.543349-53.3848 23.854358-80.077199 36.392822v-250.017493c26.692399-15.722836 53.384799-31.2750815 80.077199-46.1449612zm-185.370197 147.5899532v76.58295c17.776002 16.717953 35.552004 34.601613 53.328007 53.850004v-74.393695c-17.776003-19.88337-35.552005-38.563123-53.328007-56.039259zm-44.752364-15.552246v20.243508c-18.93078 9.685798-37.86156 18.840867-56.79234 27.465208v23.058264c15.561101-6.624631 31.235787-13.67574 46.683304-21.0396v19.902325c-15.598963 7.051109-31.160064 13.685217-46.683304 19.902324v27.721095c18.93078-7.070064 37.86156-14.708765 56.79234-22.916105v20.243507c-26.6924 11.173734-53.384799 21.153328-80.077199 29.768191v-104.998978c26.6924-11.799235 53.384799-25.162224 80.077199-39.349739zm-134.768222 79.808322c-1.325293.174496-2.635331.45014-3.918671.824525-1.419809.369614-2.839617.767661-3.918672 1.165707-9.200359 3.108554-18.400718 6.008607-27.601077 8.700159v28.858371c9.200359-2.331415 18.400718-4.871331 27.601077-7.619747 1.192639-.369615 2.498863-.796093 3.918672-1.307867 1.34508-.496851 2.654399-1.085836 3.918671-1.762777 2.781974-1.371255 5.248058-3.307872 7.241023-5.686379 1.579194-1.966949 2.773775-4.214427 3.521125-6.624631.616994-1.961127.951649-4.0003.993866-6.055993-.010446-1.826802-.347031-3.637018-.993866-5.345196-.638304-1.776279-1.886259-3.267647-3.521125-4.20792-2.244765-1.102146-4.789997-1.431943-7.241023-.938252z" stroke="url(#b)" stroke-width="1.5"/><use fill="#000" filter="url(#d)" xlink:href="#c"/><use stroke="#fff" stroke-width="1.5" xlink:href="#c"/></g></g></g></svg>