<svg height="18" viewBox="0 0 21 18" width="21" xmlns="http://www.w3.org/2000/svg"><g fill="none" fill-rule="evenodd" transform="translate(-2 -4)"><path d="m0 0h24v24h-24z"/><path d="m20.526149 6.84573162c.8899454-.56160624 1.5728121-1.45211614 1.893291-2.51292792-.8332452.52130579-1.7540059.89830998-2.7363972 1.10241225-.7839408-.88400983-1.9043846-1.43521595-3.1443916-1.43521595-2.37894 0-4.3067442 2.03452261-4.3067442 4.54355048 0 .35620396.0357458.70330782.1097024 1.0348115-3.5795034-.18980211-6.75347769-1.99682219-8.87973231-4.74765275-.37101602.67340748-.58302518 1.45341615-.58302518 2.28542539 0 1.57561751.76052122 2.96663298 1.91671069 3.78304208-.70628632-.0234003-1.37066385-.2301026-1.95245642-.5681064v.0559007c0 2.2022244 1.4840641 4.0391448 3.45747491 4.4551495-.36238775.1066012-.74203205.1599017-1.13646769.1599017-.27733756 0-.54851206-.0273003-.80982567-.0806009.54727945 1.8044201 2.13858073 3.1200347 4.02447614 3.1551351-1.47543582 1.2194136-3.33298116 1.9448216-5.35076598 1.9448216-.34759641 0-.69149498-.0195002-1.02799789-.0624007 1.9068498 1.2883143 4.17115689 2.0410227 6.60433175 2.0410227 7.92569115 0 12.25708755-6.9238769 12.25708755-12.92864365 0-.1976022-.0024653-.39390438-.0110935-.58760653.8418735-.64090712 1.5740447-1.44171602 2.1496742-2.35302615-.7728473.36140402-1.6036274.60580674-2.473851.71500795z" fill="#fff"/></g></svg>