<svg height="242" viewBox="0 0 1440 242" width="1440" xmlns="http://www.w3.org/2000/svg" xmlns:xlink="http://www.w3.org/1999/xlink"><filter id="a" height="103.2%" width="121.7%" x="-10.9%" y="-1.6%"><feGaussianBlur in="SourceGraphic" stdDeviation="2"/></filter><filter id="b" height="103.9%" width="111.2%" x="-5.6%" y="-2%"><feGaussianBlur in="SourceGraphic" stdDeviation="2"/></filter><filter id="c" height="102.7%" width="138.5%" x="-19.2%" y="-1.3%"><feGaussianBlur in="SourceGraphic" stdDeviation="2"/></filter><filter id="d" height="102.3%" width="1340%" x="-620%" y="-1.1%"><feGaussianBlur in="SourceGraphic" stdDeviation="2"/></filter><filter id="e" height="104.8%" width="108.5%" x="-4.2%" y="-2.4%"><feGaussianBlur in="SourceGraphic" stdDeviation="2"/></filter><filter id="f" height="101.9%" width="121.7%" x="-10.9%" y="-.9%"><feGaussianBlur in="SourceGraphic" stdDeviation="2"/></filter><filter id="g" height="101.7%" width="111.2%" x="-5.6%" y="-.9%"><feGaussianBlur in="SourceGraphic" stdDeviation="2"/></filter><filter id="h" height="102%" width="138.5%" x="-19.3%" y="-1%"><feGaussianBlur in="SourceGraphic" stdDeviation="2"/></filter><filter id="i" height="101.6%" width="108.6%" x="-4.3%" y="-.8%"><feGaussianBlur in="SourceGraphic" stdDeviation="2"/></filter><filter id="j" height="105%" width="100.6%" x="-.3%" y="-2.5%"><feGaussianBlur in="SourceGraphic" stdDeviation="2"/></filter><filter id="k" height="104.8%" width="100.6%" x="-.3%" y="-2.4%"><feGaussianBlur in="SourceGraphic" stdDeviation="2"/></filter><filter id="l" height="104.6%" width="100.6%" x="-.3%" y="-2.3%"><feGaussianBlur in="SourceGraphic" stdDeviation="2"/></filter><filter id="m" height="104.2%" width="100.6%" x="-.3%" y="-2.1%"><feGaussianBlur in="SourceGraphic" stdDeviation="2"/></filter><filter id="n" height="103.8%" width="100.6%" x="-.3%" y="-1.9%"><feGaussianBlur in="SourceGraphic" stdDeviation="2"/></filter><filter id="o" height="103.3%" width="100.6%" x="-.3%" y="-1.6%"><feGaussianBlur in="SourceGraphic" stdDeviation="2"/></filter><filter id="p" height="102.8%" width="100.6%" x="-.3%" y="-1.4%"><feGaussianBlur in="SourceGraphic" stdDeviation="2"/></filter><filter id="q" height="102.2%" width="100.6%" x="-.3%" y="-1.1%"><feGaussianBlur in="SourceGraphic" stdDeviation="2"/></filter><filter id="r" height="101.8%" width="100.6%" x="-.3%" y="-.9%"><feGaussianBlur in="SourceGraphic" stdDeviation="2"/></filter><mask id="s" fill="#fff"><path d="m0 0h1440v242h-1440z" fill="#fff" fill-rule="evenodd"/></mask><g fill="none" fill-rule="evenodd" stroke="#eb768d"><g mask="url(#s)" opacity=".6"><g transform="matrix(.99026807 .1391731 -.1391731 .99026807 -222.429942 -231.506177)"><path d="m1357.47 443.82c-19.92-119.553333-39.84333-245.346667-59.77-377.38" filter="url(#a)"/><path d="m1555.58 350.5c-38.58667-92.56-77.17667-196.786667-115.77-312.68" filter="url(#b)"/><path d="m1174.36 556.35c-11.24667-147.386667-22.5-298.463333-33.76-453.23" filter="url(#c)"/><path d="m987.46 668.44c-.053333-175.74-.11-351.503333-.17-527.29" filter="url(#d)" stroke-width="1.23"/><path d="m1743.68 272.97c-50.59333-71.64-101.18-157.756667-151.76-258.35" filter="url(#e)"/><path d="m617.28 851.9c19.933333-219.173333 39.856667-432.136667 59.77-638.89" filter="url(#f)"/><path d="m419.18 954.22c38.586667-250.106667 77.193333-488.67 115.82-715.69" filter="url(#g)"/><path d="m800.39 770.95c11.26-201.18 22.513333-398.683333 33.76-592.51" filter="url(#h)"/><path d="m231.08 1028.68c50.613333-271.44 101.2-528.63 151.76-771.57" filter="url(#i)"/><path d="m.08 246.44c682.34 113.1 1364.67-340.8 2047-227.68" filter="url(#j)"/><path d="m.08 259.7c682.34 109.6 1364.67-347.82 2047-238.26" filter="url(#k)"/><path d="m.08 282.94c682.34 103.44 1364.67-360.14 2047-256.7" filter="url(#l)"/><path d="m.08 317.8c682.34 94.2 1364.67-378.62 2047-284.42" filter="url(#m)"/><path d="m.08 367.6c682.34 81 1364.67-405 2047-324" filter="url(#n)"/><path d="m.08 447.28c682.34 59.88 1364.67-447.26 2047-387.38" filter="url(#o)"/><path d="m.08 548.54c682.34 33 1364.67-500.94 2047-467.9" filter="url(#p)"/><path d="m.08 711.22c682.34-10.08 1364.67-587.18 2047-597.26" filter="url(#q)"/><path d="m.08 882.2c682.34-55.4 1364.67-677.82 2047-733.22" filter="url(#r)"/></g></g><g mask="url(#s)"><g transform="matrix(.99026807 .1391731 -.1391731 .99026807 -222.267362 -231.281705)"><path d="m1357.47 443.82c-19.92-119.553333-39.84333-245.346667-59.77-377.38"/><path d="m1555.58 350.5c-38.58667-92.56-77.17667-196.786667-115.77-312.68"/><path d="m1174.36 556.35c-11.24667-147.386667-22.5-298.463333-33.76-453.23"/><path d="m987.46 668.44c-.053333-175.74-.11-351.503333-.17-527.29" stroke-width="1.23"/><path d="m1743.68 272.97c-50.59333-71.64-101.18-157.756667-151.76-258.35"/><path d="m617.28 851.9c19.933333-219.173333 39.856667-432.136667 59.77-638.89"/><path d="m419.18 954.22c38.586667-250.106667 77.193333-488.67 115.82-715.69"/><path d="m800.39 770.95c11.26-201.18 22.513333-398.683333 33.76-592.51"/><path d="m231.08 1028.68c50.613333-271.44 101.2-528.63 151.76-771.57"/><path d="m.08 246.44c682.34 113.1 1364.67-340.8 2047-227.68"/><path d="m.08 259.7c682.34 109.6 1364.67-347.82 2047-238.26"/><path d="m.08 282.94c682.34 103.44 1364.67-360.14 2047-256.7"/><path d="m.08 317.8c682.34 94.2 1364.67-378.62 2047-284.42"/><path d="m.08 367.6c682.34 81 1364.67-405 2047-324"/><path d="m.08 447.28c682.34 59.88 1364.67-447.26 2047-387.38"/><path d="m.08 548.54c682.34 33 1364.67-500.94 2047-467.9"/><path d="m.08 711.22c682.34-10.08 1364.67-587.18 2047-597.26"/><path d="m.08 882.2c682.34-55.4 1364.67-677.82 2047-733.22"/></g></g></g></svg>